<svg width="19" height="19" viewBox="0 0 19 19" fill="none" xmlns="http://www.w3.org/2000/svg">
<mask id="mask0_305_1548" style="mask-type:alpha" maskUnits="userSpaceOnUse" x="0" y="0" width="19" height="19">
<rect width="19" height="19" fill="#878FAA"/>
</mask>
<g mask="url(#mask0_305_1548)">
<path d="M5.1464 12.6667C5.76654 12.6667 6.37032 12.7358 6.95774 12.8741C7.54463 13.0129 8.12835 13.2208 8.7089 13.4979V5.69999C8.16793 5.38332 7.59397 5.14582 6.98703 4.98749C6.38008 4.82916 5.76654 4.74999 5.1464 4.74999C4.6714 4.74999 4.19983 4.79617 3.7317 4.88853C3.26303 4.98089 2.81099 5.11943 2.37557 5.30416V13.1417C2.83738 12.9833 3.29601 12.8646 3.75149 12.7854C4.20643 12.7062 4.6714 12.6667 5.1464 12.6667ZM10.2922 13.4979C10.8728 13.2208 11.4568 13.0129 12.0442 12.8741C12.6311 12.7358 13.2346 12.6667 13.8547 12.6667C14.3297 12.6667 14.795 12.7062 15.2504 12.7854C15.7054 12.8646 16.1638 12.9833 16.6256 13.1417V5.30416C16.1902 5.11943 15.7384 4.98089 15.2702 4.88853C14.8016 4.79617 14.3297 4.74999 13.8547 4.74999C13.2346 4.74999 12.6211 4.82916 12.0141 4.98749C11.4072 5.14582 10.8332 5.38332 10.2922 5.69999V13.4979ZM9.50057 15.8333C8.86724 15.3319 8.18113 14.9427 7.44224 14.6656C6.70335 14.3885 5.93807 14.25 5.1464 14.25C4.59224 14.25 4.0481 14.3226 3.51399 14.4677C2.97935 14.6128 2.46793 14.8173 1.97974 15.0812C1.70265 15.2264 1.4356 15.2198 1.17857 15.0614C0.921014 14.9031 0.792236 14.6722 0.792236 14.3687V4.82916C0.792236 4.68402 0.828653 4.54548 0.901486 4.41353C0.973792 4.28159 1.08251 4.18263 1.22765 4.11666C1.8346 3.79999 2.46793 3.56249 3.12765 3.40416C3.78738 3.24582 4.46029 3.16666 5.1464 3.16666C5.91168 3.16666 6.6606 3.26561 7.39315 3.46353C8.12518 3.66145 8.82765 3.95832 9.50057 4.35416C10.1735 3.95832 10.8762 3.66145 11.6088 3.46353C12.3408 3.26561 13.0895 3.16666 13.8547 3.16666C14.5408 3.16666 15.2138 3.24582 15.8735 3.40416C16.5332 3.56249 17.1665 3.79999 17.7735 4.11666C17.9186 4.18263 18.0276 4.28159 18.1004 4.41353C18.1728 4.54548 18.2089 4.68402 18.2089 4.82916V14.3687C18.2089 14.6722 18.0804 14.9031 17.8234 15.0614C17.5658 15.2198 17.2985 15.2264 17.0214 15.0812C16.5332 14.8173 16.0218 14.6128 15.4872 14.4677C14.953 14.3226 14.4089 14.25 13.8547 14.25C13.0631 14.25 12.2978 14.3885 11.5589 14.6656C10.82 14.9427 10.1339 15.3319 9.50057 15.8333Z" fill="#878FAA"/>
</g>
</svg>
