<svg width="19" height="19" viewBox="0 0 19 19" fill="none" xmlns="http://www.w3.org/2000/svg">
<mask id="mask0_305_1991" style="mask-type:alpha" maskUnits="userSpaceOnUse" x="0" y="0" width="19" height="19">
<rect width="19" height="19" fill="#D9D9D9"/>
</mask>
<g mask="url(#mask0_305_1991)">
<path d="M9.49992 17.4167C8.40478 17.4167 7.37561 17.2087 6.41242 16.7928C5.44922 16.3775 4.61138 15.8135 3.89888 15.101C3.18638 14.3885 2.62245 13.5507 2.20709 12.5875C1.7912 11.6243 1.58325 10.5951 1.58325 9.49999C1.58325 8.40486 1.7912 7.37569 2.20709 6.4125C2.62245 5.4493 3.18638 4.61145 3.89888 3.89895C4.61138 3.18645 5.44922 2.62226 6.41242 2.20637C7.37561 1.79101 8.40478 1.58333 9.49992 1.58333C10.5951 1.58333 11.6242 1.79101 12.5874 2.20637C13.5506 2.62226 14.3885 3.18645 15.101 3.89895C15.8135 4.61145 16.3774 5.4493 16.7928 6.4125C17.2086 7.37569 17.4166 8.40486 17.4166 9.49999C17.4166 10.5951 17.2086 11.6243 16.7928 12.5875C16.3774 13.5507 15.8135 14.3885 15.101 15.101C14.3885 15.8135 13.5506 16.3775 12.5874 16.7928C11.6242 17.2087 10.5951 17.4167 9.49992 17.4167ZM9.49992 15.8333C11.268 15.8333 12.7655 15.2198 13.9926 13.9927C15.2197 12.7656 15.8333 11.2681 15.8333 9.49999C15.8333 7.73194 15.2197 6.23437 13.9926 5.00729C12.7655 3.7802 11.268 3.16666 9.49992 3.16666C7.73186 3.16666 6.23429 3.7802 5.00721 5.00729C3.78013 6.23437 3.16659 7.73194 3.16659 9.49999C3.16659 11.2681 3.78013 12.7656 5.00721 13.9927C6.23429 15.2198 7.73186 15.8333 9.49992 15.8333Z" fill="#878FAA"/>
</g>
</svg>
