<svg style="padding-top: 0.1rem;" width="16" height="15" viewBox="0 0 16 15" fill="none" xmlns="http://www.w3.org/2000/svg">
   <path d="M14.4361 14.9995L9.18606 9.74945C8.76939 10.0828 8.29022 10.3467 7.74855 10.5411C7.20689 10.7356 6.6305 10.8328 6.01939 10.8328C4.5055 10.8328 3.22439 10.3086 2.17606 9.26028C1.12717 8.2114 0.602722 6.93001 0.602722 5.41612C0.602722 3.90223 1.12717 2.62084 2.17606 1.57195C3.22439 0.523617 4.5055 -0.000549316 6.01939 -0.000549316C7.53328 -0.000549316 8.81467 0.523617 9.86355 1.57195C10.9119 2.62084 11.4361 3.90223 11.4361 5.41612C11.4361 6.02723 11.3388 6.60362 11.1444 7.14528C10.9499 7.68695 10.6861 8.16612 10.3527 8.58278L15.6027 13.8328L14.4361 14.9995ZM6.01939 9.16612C7.06105 9.16612 7.94661 8.80167 8.67605 8.07278C9.40494 7.34334 9.76939 6.45778 9.76939 5.41612C9.76939 4.37445 9.40494 3.48889 8.67605 2.75945C7.94661 2.03056 7.06105 1.66612 6.01939 1.66612C4.97772 1.66612 4.09217 2.03056 3.36272 2.75945C2.63383 3.48889 2.26939 4.37445 2.26939 5.41612C2.26939 6.45778 2.63383 7.34334 3.36272 8.07278C4.09217 8.80167 4.97772 9.16612 6.01939 9.16612Z" fill="#4B1FED"/>
</svg>
