<svg xmlns="http://www.w3.org/2000/svg" width="20" height="21" viewBox="0 0 20 21" fill="none">
  <mask id="mask0_705_208" style="mask-type:alpha" maskUnits="userSpaceOnUse" x="0" y="1" width="21" height="21">
    <rect x="0.102783" y="1.49945" width="20" height="20" fill="#D9D9D9"/>
  </mask>
  <g mask="url(#mask0_705_208)">
    <path d="M16.4361 18.9995L11.1861 13.7495C10.7694 14.0828 10.2903 14.3467 9.74862 14.5411C9.20695 14.7356 8.63056 14.8328 8.01945 14.8328C6.50556 14.8328 5.22445 14.3086 4.17612 13.2603C3.12723 12.2114 2.60278 10.93 2.60278 9.41612C2.60278 7.90223 3.12723 6.62084 4.17612 5.57195C5.22445 4.52362 6.50556 3.99945 8.01945 3.99945C9.53334 3.99945 10.8147 4.52362 11.8636 5.57195C12.9119 6.62084 13.4361 7.90223 13.4361 9.41612C13.4361 10.0272 13.3389 10.6036 13.1444 11.1453C12.95 11.687 12.6861 12.1661 12.3528 12.5828L17.6028 17.8328L16.4361 18.9995ZM8.01945 13.1661C9.06112 13.1661 9.94667 12.8017 10.6761 12.0728C11.405 11.3433 11.7694 10.4578 11.7694 9.41612C11.7694 8.37445 11.405 7.48889 10.6761 6.75945C9.94667 6.03056 9.06112 5.66612 8.01945 5.66612C6.97778 5.66612 6.09223 6.03056 5.36278 6.75945C4.63389 7.48889 4.26945 8.37445 4.26945 9.41612C4.26945 10.4578 4.63389 11.3433 5.36278 12.0728C6.09223 12.8017 6.97778 13.1661 8.01945 13.1661Z" fill="#4B1FED"/>
  </g>
</svg>