<svg width="15" height="13" viewBox="0 0 15 13" fill="none" xmlns="http://www.w3.org/2000/svg">
<path d="M1.5625 12.4375C1.23264 12.4375 0.952389 12.3219 0.72175 12.0908C0.490583 11.8601 0.375 11.5799 0.375 11.25C0.375 10.9201 0.490583 10.6399 0.72175 10.4093C0.952389 10.1781 1.23264 10.0625 1.5625 10.0625C1.89236 10.0625 2.17261 10.1781 2.40325 10.4093C2.63442 10.6399 2.75 10.9201 2.75 11.25C2.75 11.5799 2.63442 11.8601 2.40325 12.0908C2.17261 12.3219 1.89236 12.4375 1.5625 12.4375ZM4.33333 12.0417V10.4583H14.625V12.0417H4.33333ZM1.5625 7.6875C1.23264 7.6875 0.952389 7.57192 0.72175 7.34075C0.490583 7.11011 0.375 6.82986 0.375 6.5C0.375 6.17014 0.490583 5.88989 0.72175 5.65925C0.952389 5.42808 1.23264 5.3125 1.5625 5.3125C1.89236 5.3125 2.17261 5.42808 2.40325 5.65925C2.63442 5.88989 2.75 6.17014 2.75 6.5C2.75 6.82986 2.63442 7.11011 2.40325 7.34075C2.17261 7.57192 1.89236 7.6875 1.5625 7.6875ZM4.33333 7.29167V5.70833H14.625V7.29167H4.33333ZM1.5625 2.9375C1.23264 2.9375 0.952389 2.82192 0.72175 2.59075C0.490583 2.36011 0.375 2.07986 0.375 1.75C0.375 1.42014 0.490583 1.13989 0.72175 0.90925C0.952389 0.678084 1.23264 0.5625 1.5625 0.5625C1.89236 0.5625 2.17261 0.678084 2.40325 0.90925C2.63442 1.13989 2.75 1.42014 2.75 1.75C2.75 2.07986 2.63442 2.36011 2.40325 2.59075C2.17261 2.82192 1.89236 2.9375 1.5625 2.9375ZM4.33333 2.54167V0.958333H14.625V2.54167H4.33333Z" fill="#878FAA"/>
</svg>
