<svg width="16" height="17" viewBox="0 0 16 17" fill="none" xmlns="http://www.w3.org/2000/svg">
<path d="M12.7646 14.6104L13.3188 14.0562L11.8542 12.5917V10.375H11.0625V12.9083L12.7646 14.6104ZM6.70833 0.30104C6.95903 0.155902 7.22292 0.0833321 7.5 0.0833321C7.77708 0.0833321 8.04097 0.155902 8.29167 0.30104L13.8333 3.4875C14.084 3.63264 14.2786 3.82396 14.4172 4.06146C14.5557 4.29896 14.625 4.56285 14.625 4.85312V8.21771C14.3875 8.04618 14.1368 7.89774 13.8729 7.7724C13.609 7.64705 13.3319 7.53819 13.0417 7.44583V5.70417L10.1917 7.34687C9.45278 7.5316 8.78316 7.84496 8.18281 8.28698C7.58247 8.72899 7.09097 9.26667 6.70833 9.9V8.45521L1.95833 5.70417V11.1271L5.95625 13.4427C6.00903 13.8649 6.10799 14.2707 6.25313 14.6599C6.39826 15.0491 6.58299 15.4153 6.80729 15.7583C6.7809 15.7451 6.76441 15.7352 6.75781 15.7286C6.75122 15.722 6.73472 15.7122 6.70833 15.699L1.16667 12.5125C0.915972 12.3674 0.721354 12.176 0.582813 11.9385C0.444271 11.701 0.375 11.4372 0.375 11.1469V4.85312C0.375 4.56285 0.444271 4.29896 0.582813 4.06146C0.721354 3.82396 0.915972 3.63264 1.16667 3.4875L6.70833 0.30104ZM7.5 1.66667L2.80938 4.37812L7.5 7.08958L12.1906 4.37812L7.5 1.66667ZM11.4583 16.7083C10.3632 16.7083 9.42969 16.3224 8.65781 15.5505C7.88594 14.7786 7.5 13.8451 7.5 12.75C7.5 11.6549 7.88594 10.7214 8.65781 9.94948C9.42969 9.1776 10.3632 8.79167 11.4583 8.79167C12.5535 8.79167 13.487 9.1776 14.2589 9.94948C15.0307 10.7214 15.4167 11.6549 15.4167 12.75C15.4167 13.8451 15.0307 14.7786 14.2589 15.5505C13.487 16.3224 12.5535 16.7083 11.4583 16.7083Z" fill="#878FAA"/>
</svg>
