<svg width="17" height="17" viewBox="0 0 17 17" fill="none" xmlns="http://www.w3.org/2000/svg">
<path d="M8.50004 16.4167C7.4049 16.4167 6.37573 16.2089 5.41254 15.7932C4.44935 15.3776 3.6115 14.8136 2.899 14.1011C2.1865 13.3886 1.62244 12.5507 1.20681 11.5875C0.791186 10.6243 0.583374 9.59515 0.583374 8.50001C0.583374 7.40487 0.791186 6.3757 1.20681 5.41251C1.62244 4.44932 2.1865 3.61147 2.899 2.89897C3.6115 2.18647 4.44935 1.62241 5.41254 1.20678C6.37573 0.791156 7.4049 0.583344 8.50004 0.583344C9.59518 0.583344 10.6243 0.791156 11.5875 1.20678C12.5507 1.62241 13.3886 2.18647 14.1011 2.89897C14.8136 3.61147 15.3776 4.44932 15.7933 5.41251C16.2089 6.3757 16.4167 7.40487 16.4167 8.50001C16.4167 9.59515 16.2089 10.6243 15.7933 11.5875C15.3776 12.5507 14.8136 13.3886 14.1011 14.1011C13.3886 14.8136 12.5507 15.3776 11.5875 15.7932C10.6243 16.2089 9.59518 16.4167 8.50004 16.4167ZM9.29171 14.774C10.8618 14.5761 12.178 13.8866 13.2401 12.7057C14.3023 11.5248 14.8334 10.1229 14.8334 8.50001C14.8334 6.87709 14.3023 5.47518 13.2401 4.29428C12.178 3.11338 10.8618 2.42397 9.29171 2.22605V14.774Z" fill="#878FAA"/>
</svg>
