<svg width="15" height="17" viewBox="0 0 15 17" fill="none" xmlns="http://www.w3.org/2000/svg">
<path d="M0.572962 6.63958C0.480601 6.5736 0.424656 6.49101 0.405129 6.39179C0.385073 6.29309 0.414629 6.19097 0.493795 6.08541C1.31185 4.96388 2.33759 4.09305 3.571 3.47291C4.80495 2.85277 6.12123 2.5427 7.51984 2.5427C8.91845 2.5427 10.2379 2.84274 11.4782 3.44283C12.7184 4.04344 13.7542 4.9111 14.5855 6.04583C14.6778 6.16458 14.7074 6.27013 14.6741 6.36249C14.6414 6.45486 14.5855 6.53402 14.5063 6.59999C14.4271 6.66597 14.3348 6.69552 14.2292 6.68866C14.1237 6.68233 14.0313 6.62638 13.9521 6.52083C13.2264 5.49166 12.2931 4.70316 11.152 4.15533C10.0104 3.60802 8.7997 3.33437 7.51984 3.33437C6.23997 3.33437 5.03928 3.60802 3.91775 4.15533C2.79623 4.70316 1.86602 5.49166 1.12713 6.52083C1.04796 6.63958 0.955601 6.70555 0.850045 6.71874C0.744489 6.73194 0.652128 6.70555 0.572962 6.63958ZM9.7563 16.3969C8.38407 16.0538 7.26255 15.3709 6.39171 14.348C5.52088 13.3257 5.08546 12.0757 5.08546 10.5979C5.08546 9.93819 5.32296 9.38402 5.79796 8.93541C6.27296 8.4868 6.84692 8.26249 7.51984 8.26249C8.19275 8.26249 8.76671 8.4868 9.24171 8.93541C9.71671 9.38402 9.95421 9.93819 9.95421 10.5979C9.95421 11.0333 10.1191 11.3996 10.449 11.6967C10.7789 11.9934 11.1681 12.1417 11.6167 12.1417C12.0653 12.1417 12.448 11.9934 12.7646 11.6967C13.0813 11.3996 13.2396 11.0333 13.2396 10.5979C13.2396 9.06736 12.6789 7.7809 11.5573 6.73854C10.4358 5.69617 9.09657 5.17499 7.53963 5.17499C5.98268 5.17499 4.64345 5.69617 3.52192 6.73854C2.40039 7.7809 1.83963 9.06076 1.83963 10.5781C1.83963 10.8948 1.86945 11.2906 1.92909 11.7656C1.9882 12.2406 2.12991 12.7948 2.35421 13.4281C2.3938 13.5469 2.39063 13.6524 2.34471 13.7448C2.29827 13.8371 2.22227 13.9031 2.11671 13.9427C2.01116 13.9823 1.90877 13.9789 1.80954 13.9324C1.71085 13.8865 1.64171 13.8108 1.60213 13.7052C1.40421 13.1906 1.2625 12.6792 1.177 12.171C1.09098 11.6632 1.04796 11.1389 1.04796 10.5979C1.04796 8.84305 1.68473 7.37187 2.95825 6.18437C4.23125 4.99687 5.75178 4.40312 7.51984 4.40312C9.30109 4.40312 10.8316 4.99687 12.1115 6.18437C13.3914 7.37187 14.0313 8.84305 14.0313 10.5979C14.0313 11.2576 13.7972 11.8086 13.3291 12.2509C12.8604 12.6927 12.2896 12.9135 11.6167 12.9135C10.9438 12.9135 10.3667 12.6927 9.88534 12.2509C9.40347 11.8086 9.16255 11.2576 9.16255 10.5979C9.16255 10.1625 9.00104 9.79622 8.67804 9.49908C8.35452 9.20247 7.96845 9.05416 7.51984 9.05416C7.07123 9.05416 6.68516 9.20247 6.36163 9.49908C6.03863 9.79622 5.87713 10.1625 5.87713 10.5979C5.87713 11.8778 6.2566 12.9465 7.01554 13.8042C7.77396 14.6618 8.75352 15.2621 9.95421 15.6052C10.073 15.6448 10.1521 15.7108 10.1917 15.8031C10.2313 15.8955 10.2379 15.9944 10.2115 16.1C10.1851 16.1924 10.1323 16.2715 10.0532 16.3375C9.974 16.4035 9.87504 16.4233 9.7563 16.3969ZM3.14588 2.50312C3.04032 2.56909 2.93477 2.58545 2.82921 2.5522C2.72366 2.51948 2.64449 2.45034 2.59171 2.34479C2.53893 2.23923 2.52574 2.14344 2.55213 2.05741C2.57852 1.97191 2.64449 1.89617 2.75005 1.8302C3.48893 1.43437 4.26081 1.1309 5.06567 0.919785C5.87053 0.708674 6.68859 0.603119 7.51984 0.603119C8.36428 0.603119 9.18893 0.705244 9.99379 0.909494C10.7987 1.11427 11.5771 1.40798 12.3292 1.79062C12.448 1.85659 12.5174 1.93576 12.5374 2.02812C12.5569 2.12048 12.5469 2.21284 12.5073 2.3052C12.4678 2.39756 12.4018 2.47013 12.3094 2.52291C12.2171 2.57569 12.1049 2.56909 11.973 2.50312C11.2737 2.14687 10.5511 1.87295 9.80538 1.68137C9.06016 1.49031 8.29831 1.39479 7.51984 1.39479C6.75456 1.39479 6.00248 1.48372 5.26359 1.66158C4.5247 1.83997 3.81879 2.12048 3.14588 2.50312ZM5.48129 16.1198C4.70282 15.3017 4.10591 14.467 3.69055 13.6157C3.27466 12.765 3.06671 11.759 3.06671 10.5979C3.06671 9.39722 3.50213 8.38441 4.37296 7.55949C5.24379 6.73511 6.29275 6.32291 7.51984 6.32291C8.74692 6.32291 9.80247 6.73511 10.6865 7.55949C11.5705 8.38441 12.0125 9.39722 12.0125 10.5979C12.0125 10.7167 11.9761 10.8122 11.9033 10.8845C11.831 10.9573 11.7355 10.9937 11.6167 10.9937C11.5112 10.9937 11.4188 10.9573 11.3396 10.8845C11.2605 10.8122 11.2209 10.7167 11.2209 10.5979C11.2209 9.60833 10.8546 8.78024 10.122 8.11366C9.39002 7.4476 8.52261 7.11458 7.51984 7.11458C6.51706 7.11458 5.65599 7.4476 4.93663 8.11366C4.2178 8.78024 3.85838 9.60833 3.85838 10.5979C3.85838 11.6667 4.0431 12.5736 4.41255 13.3189C4.78199 14.0646 5.32296 14.8135 6.03546 15.5656C6.11463 15.6448 6.15421 15.7371 6.15421 15.8427C6.15421 15.9483 6.11463 16.0406 6.03546 16.1198C5.95629 16.199 5.86393 16.2385 5.75838 16.2385C5.65282 16.2385 5.56046 16.199 5.48129 16.1198ZM11.4584 14.774C10.2841 14.774 9.26467 14.3781 8.40017 13.5865C7.5362 12.7948 7.10421 11.7986 7.10421 10.5979C7.10421 10.4924 7.14036 10.4 7.21267 10.3208C7.2855 10.2417 7.38129 10.2021 7.50004 10.2021C7.61879 10.2021 7.71459 10.2417 7.78742 10.3208C7.85973 10.4 7.89588 10.4924 7.89588 10.5979C7.89588 11.5875 8.25213 12.399 8.96463 13.0323C9.67713 13.6656 10.5084 13.9823 11.4584 13.9823C11.5375 13.9823 11.6497 13.9757 11.7948 13.9625C11.94 13.9493 12.0917 13.9295 12.25 13.9031C12.3688 13.8767 12.4712 13.8931 12.5572 13.9522C12.6427 14.0118 12.6987 14.101 12.725 14.2198C12.7514 14.3253 12.7316 14.4177 12.6657 14.4969C12.5997 14.576 12.5139 14.6288 12.4084 14.6552C12.1709 14.7212 11.9632 14.7576 11.7853 14.7645C11.6069 14.7708 11.498 14.774 11.4584 14.774Z" fill="#878FAA"/>
</svg>
