<svg width="17" height="17" viewBox="0 0 17 17" fill="none" xmlns="http://www.w3.org/2000/svg">
<path d="M3.63129 12.5375C4.30421 12.0229 5.05629 11.6171 5.88754 11.3199C6.71879 11.0233 7.58962 10.875 8.50004 10.875C9.41046 10.875 10.2813 11.0233 11.1125 11.3199C11.9438 11.6171 12.6959 12.0229 13.3688 12.5375C13.8306 11.9965 14.1903 11.383 14.4478 10.6969C14.7049 10.0108 14.8334 9.27848 14.8334 8.50001C14.8334 6.74515 14.2167 5.25075 12.9832 4.0168C11.7493 2.78339 10.2549 2.16668 8.50004 2.16668C6.74518 2.16668 5.25104 2.78339 4.01762 4.0168C2.78368 5.25075 2.16671 6.74515 2.16671 8.50001C2.16671 9.27848 2.29549 10.0108 2.55304 10.6969C2.81007 11.383 3.16948 11.9965 3.63129 12.5375ZM8.50004 9.29168C7.72157 9.29168 7.06501 9.02462 6.53037 8.49051C5.99626 7.95587 5.72921 7.29932 5.72921 6.52084C5.72921 5.74237 5.99626 5.08582 6.53037 4.55118C7.06501 4.01707 7.72157 3.75001 8.50004 3.75001C9.27851 3.75001 9.93507 4.01707 10.4697 4.55118C11.0038 5.08582 11.2709 5.74237 11.2709 6.52084C11.2709 7.29932 11.0038 7.95587 10.4697 8.49051C9.93507 9.02462 9.27851 9.29168 8.50004 9.29168ZM8.50004 16.4167C7.4049 16.4167 6.37574 16.2087 5.41254 15.7928C4.44935 15.3775 3.6115 14.8136 2.899 14.1011C2.1865 13.3886 1.62257 12.5507 1.20721 11.5875C0.791319 10.6243 0.583374 9.59515 0.583374 8.50001C0.583374 7.40487 0.791319 6.3757 1.20721 5.41251C1.62257 4.44932 2.1865 3.61147 2.899 2.89897C3.6115 2.18647 4.44935 1.62227 5.41254 1.20639C6.37574 0.791024 7.4049 0.583344 8.50004 0.583344C9.59518 0.583344 10.6243 0.791024 11.5875 1.20639C12.5507 1.62227 13.3886 2.18647 14.1011 2.89897C14.8136 3.61147 15.3775 4.44932 15.7929 5.41251C16.2088 6.3757 16.4167 7.40487 16.4167 8.50001C16.4167 9.59515 16.2088 10.6243 15.7929 11.5875C15.3775 12.5507 14.8136 13.3886 14.1011 14.1011C13.3886 14.8136 12.5507 15.3775 11.5875 15.7928C10.6243 16.2087 9.59518 16.4167 8.50004 16.4167ZM8.50004 14.8333C9.19935 14.8333 9.85907 14.7312 10.4792 14.527C11.0993 14.3222 11.6667 14.0285 12.1813 13.6458C11.6667 13.2632 11.0993 12.9695 10.4792 12.7647C9.85907 12.5605 9.19935 12.4583 8.50004 12.4583C7.80073 12.4583 7.14101 12.5605 6.52087 12.7647C5.90073 12.9695 5.33337 13.2632 4.81879 13.6458C5.33337 14.0285 5.90073 14.3222 6.52087 14.527C7.14101 14.7312 7.80073 14.8333 8.50004 14.8333ZM8.50004 7.70834C8.8431 7.70834 9.12678 7.59619 9.35108 7.37188C9.57539 7.14758 9.68754 6.8639 9.68754 6.52084C9.68754 6.17779 9.57539 5.89411 9.35108 5.6698C9.12678 5.4455 8.8431 5.33334 8.50004 5.33334C8.15698 5.33334 7.8733 5.4455 7.649 5.6698C7.42469 5.89411 7.31254 6.17779 7.31254 6.52084C7.31254 6.8639 7.42469 7.14758 7.649 7.37188C7.8733 7.59619 8.15698 7.70834 8.50004 7.70834Z" fill="#878FAA"/>
</svg>
