<svg width="17" height="17" viewBox="0 0 17 17" fill="none" xmlns="http://www.w3.org/2000/svg">
<path d="M7.66873 12.1021L12.1416 7.62917L11.0135 6.50105L7.66873 9.84584L5.98643 8.16355L4.85831 9.29167L7.66873 12.1021ZM8.49998 16.4167C7.51039 16.4167 6.58361 16.2288 5.71964 15.853C4.85514 15.4767 4.10306 14.9684 3.46339 14.3283C2.8232 13.6886 2.31495 12.9365 1.93864 12.072C1.56286 11.208 1.37498 10.2813 1.37498 9.29167C1.37498 8.30209 1.56286 7.37505 1.93864 6.51055C2.31495 5.64657 2.8232 4.89449 3.46339 4.2543C4.10306 3.61463 4.85514 3.10691 5.71964 2.73113C6.58361 2.35482 7.51039 2.16667 8.49998 2.16667C9.48956 2.16667 10.4166 2.35482 11.2811 2.73113C12.1451 3.10691 12.8972 3.61463 13.5374 4.2543C14.177 4.89449 14.685 5.64657 15.0613 6.51055C15.4371 7.37505 15.625 8.30209 15.625 9.29167C15.625 10.2813 15.4371 11.208 15.0613 12.072C14.685 12.9365 14.177 13.6886 13.5374 14.3283C12.8972 14.9684 12.1451 15.4767 11.2811 15.853C10.4166 16.2288 9.48956 16.4167 8.49998 16.4167ZM3.43331 0.86042L4.54164 1.96875L1.17706 5.33334L0.0687256 4.225L3.43331 0.86042ZM13.5666 0.86042L16.9312 4.225L15.8229 5.33334L12.4583 1.96875L13.5666 0.86042ZM8.49998 14.8333C10.0437 14.8333 11.3531 14.2955 12.4282 13.2199C13.5038 12.1448 14.0416 10.8354 14.0416 9.29167C14.0416 7.74792 13.5038 6.43824 12.4282 5.36263C11.3531 4.28755 10.0437 3.75 8.49998 3.75C6.95623 3.75 5.64681 4.28755 4.57173 5.36263C3.49611 6.43824 2.95831 7.74792 2.95831 9.29167C2.95831 10.8354 3.49611 12.1448 4.57173 13.2199C5.64681 14.2955 6.95623 14.8333 8.49998 14.8333Z" fill="#878FAA"/>
</svg>
