<svg width="17" height="17" viewBox="0 0 17 17" fill="none" xmlns="http://www.w3.org/2000/svg">
<path d="M8.50004 16.4167C7.4049 16.4167 6.37574 16.2087 5.41254 15.7928C4.44935 15.3775 3.6115 14.8135 2.899 14.101C2.1865 13.3885 1.62257 12.5507 1.20721 11.5875C0.791319 10.6243 0.583374 9.59514 0.583374 8.5C0.583374 7.40486 0.791319 6.37569 1.20721 5.4125C1.62257 4.4493 2.1865 3.61146 2.899 2.89896C3.6115 2.18646 4.44935 1.62226 5.41254 1.20637C6.37574 0.791013 7.4049 0.583332 8.50004 0.583332C9.59518 0.583332 10.6243 0.791013 11.5875 1.20637C12.5507 1.62226 13.3886 2.18646 14.1011 2.89896C14.8136 3.61146 15.3775 4.4493 15.7929 5.4125C16.2088 6.37569 16.4167 7.40486 16.4167 8.5C16.4167 9.59514 16.2088 10.6243 15.7929 11.5875C15.3775 12.5507 14.8136 13.3885 14.1011 14.101C13.3886 14.8135 12.5507 15.3775 11.5875 15.7928C10.6243 16.2087 9.59518 16.4167 8.50004 16.4167ZM8.50004 14.8333C10.2681 14.8333 11.7657 14.2198 12.9927 12.9927C14.2198 11.7656 14.8334 10.2681 14.8334 8.5C14.8334 6.73194 14.2198 5.23437 12.9927 4.00729C11.7657 2.78021 10.2681 2.16667 8.50004 2.16667C6.73198 2.16667 5.23442 2.78021 4.00733 4.00729C2.78025 5.23437 2.16671 6.73194 2.16671 8.5C2.16671 10.2681 2.78025 11.7656 4.00733 12.9927C5.23442 14.2198 6.73198 14.8333 8.50004 14.8333Z" fill="#878FAA"/>
</svg>
