<svg width="17" height="17" viewBox="0 0 17 17" fill="none" xmlns="http://www.w3.org/2000/svg">
<path d="M4.54171 5.33334C4.10629 5.33334 3.73368 5.17818 3.42387 4.86784C3.11354 4.55804 2.95837 4.18543 2.95837 3.75001V2.16668C2.95837 1.73126 3.11354 1.35839 3.42387 1.04805C3.73368 0.738246 4.10629 0.583344 4.54171 0.583344H12.4584C12.8938 0.583344 13.2667 0.738246 13.577 1.04805C13.8868 1.35839 14.0417 1.73126 14.0417 2.16668V3.75001C14.0417 4.18543 13.8868 4.55804 13.577 4.86784C13.2667 5.17818 12.8938 5.33334 12.4584 5.33334H4.54171ZM4.54171 3.75001H12.4584V2.16668H4.54171V3.75001ZM2.16671 16.4167C1.73129 16.4167 1.35868 16.2618 1.04887 15.952C0.738541 15.6416 0.583374 15.2688 0.583374 14.8333V14.0417H16.4167V14.8333C16.4167 15.2688 16.2618 15.6416 15.952 15.952C15.6417 16.2618 15.2688 16.4167 14.8334 16.4167H2.16671ZM0.583374 13.25L3.33442 7.05522C3.46636 6.76494 3.66428 6.5372 3.92817 6.37201C4.19205 6.20734 4.47574 6.12501 4.77921 6.12501H12.2209C12.5243 6.12501 12.808 6.20734 13.0719 6.37201C13.3358 6.5372 13.5337 6.76494 13.6657 7.05522L16.4167 13.25H0.583374ZM5.72921 11.6667H6.52087C6.62643 11.6667 6.71879 11.6271 6.79796 11.5479C6.87712 11.4688 6.91671 11.3764 6.91671 11.2708C6.91671 11.1653 6.87712 11.0729 6.79796 10.9938C6.71879 10.9146 6.62643 10.875 6.52087 10.875H5.72921C5.62365 10.875 5.53129 10.9146 5.45212 10.9938C5.37296 11.0729 5.33337 11.1653 5.33337 11.2708C5.33337 11.3764 5.37296 11.4688 5.45212 11.5479C5.53129 11.6271 5.62365 11.6667 5.72921 11.6667ZM5.72921 10.0833H6.52087C6.62643 10.0833 6.71879 10.0438 6.79796 9.96459C6.87712 9.88543 6.91671 9.79307 6.91671 9.68751C6.91671 9.58195 6.87712 9.48959 6.79796 9.41043C6.71879 9.33126 6.62643 9.29168 6.52087 9.29168H5.72921C5.62365 9.29168 5.53129 9.33126 5.45212 9.41043C5.37296 9.48959 5.33337 9.58195 5.33337 9.68751C5.33337 9.79307 5.37296 9.88543 5.45212 9.96459C5.53129 10.0438 5.62365 10.0833 5.72921 10.0833ZM5.72921 8.50001H6.52087C6.62643 8.50001 6.71879 8.46043 6.79796 8.38126C6.87712 8.30209 6.91671 8.20973 6.91671 8.10418C6.91671 7.99862 6.87712 7.90626 6.79796 7.82709C6.71879 7.74793 6.62643 7.70834 6.52087 7.70834H5.72921C5.62365 7.70834 5.53129 7.74793 5.45212 7.82709C5.37296 7.90626 5.33337 7.99862 5.33337 8.10418C5.33337 8.20973 5.37296 8.30209 5.45212 8.38126C5.53129 8.46043 5.62365 8.50001 5.72921 8.50001ZM8.10421 11.6667H8.89587C9.00143 11.6667 9.09379 11.6271 9.17296 11.5479C9.25212 11.4688 9.29171 11.3764 9.29171 11.2708C9.29171 11.1653 9.25212 11.0729 9.17296 10.9938C9.09379 10.9146 9.00143 10.875 8.89587 10.875H8.10421C7.99865 10.875 7.90629 10.9146 7.82712 10.9938C7.74796 11.0729 7.70837 11.1653 7.70837 11.2708C7.70837 11.3764 7.74796 11.4688 7.82712 11.5479C7.90629 11.6271 7.99865 11.6667 8.10421 11.6667ZM8.10421 10.0833H8.89587C9.00143 10.0833 9.09379 10.0438 9.17296 9.96459C9.25212 9.88543 9.29171 9.79307 9.29171 9.68751C9.29171 9.58195 9.25212 9.48959 9.17296 9.41043C9.09379 9.33126 9.00143 9.29168 8.89587 9.29168H8.10421C7.99865 9.29168 7.90629 9.33126 7.82712 9.41043C7.74796 9.48959 7.70837 9.58195 7.70837 9.68751C7.70837 9.79307 7.74796 9.88543 7.82712 9.96459C7.90629 10.0438 7.99865 10.0833 8.10421 10.0833ZM8.10421 8.50001H8.89587C9.00143 8.50001 9.09379 8.46043 9.17296 8.38126C9.25212 8.30209 9.29171 8.20973 9.29171 8.10418C9.29171 7.99862 9.25212 7.90626 9.17296 7.82709C9.09379 7.74793 9.00143 7.70834 8.89587 7.70834H8.10421C7.99865 7.70834 7.90629 7.74793 7.82712 7.82709C7.74796 7.90626 7.70837 7.99862 7.70837 8.10418C7.70837 8.20973 7.74796 8.30209 7.82712 8.38126C7.90629 8.46043 7.99865 8.50001 8.10421 8.50001ZM10.4792 11.6667H11.2709C11.3764 11.6667 11.4688 11.6271 11.548 11.5479C11.6271 11.4688 11.6667 11.3764 11.6667 11.2708C11.6667 11.1653 11.6271 11.0729 11.548 10.9938C11.4688 10.9146 11.3764 10.875 11.2709 10.875H10.4792C10.3737 10.875 10.2813 10.9146 10.2021 10.9938C10.123 11.0729 10.0834 11.1653 10.0834 11.2708C10.0834 11.3764 10.123 11.4688 10.2021 11.5479C10.2813 11.6271 10.3737 11.6667 10.4792 11.6667ZM10.4792 10.0833H11.2709C11.3764 10.0833 11.4688 10.0438 11.548 9.96459C11.6271 9.88543 11.6667 9.79307 11.6667 9.68751C11.6667 9.58195 11.6271 9.48959 11.548 9.41043C11.4688 9.33126 11.3764 9.29168 11.2709 9.29168H10.4792C10.3737 9.29168 10.2813 9.33126 10.2021 9.41043C10.123 9.48959 10.0834 9.58195 10.0834 9.68751C10.0834 9.79307 10.123 9.88543 10.2021 9.96459C10.2813 10.0438 10.3737 10.0833 10.4792 10.0833ZM10.4792 8.50001H11.2709C11.3764 8.50001 11.4688 8.46043 11.548 8.38126C11.6271 8.30209 11.6667 8.20973 11.6667 8.10418C11.6667 7.99862 11.6271 7.90626 11.548 7.82709C11.4688 7.74793 11.3764 7.70834 11.2709 7.70834H10.4792C10.3737 7.70834 10.2813 7.74793 10.2021 7.82709C10.123 7.90626 10.0834 7.99862 10.0834 8.10418C10.0834 8.20973 10.123 8.30209 10.2021 8.38126C10.2813 8.46043 10.3737 8.50001 10.4792 8.50001Z" fill="#878FAA"/>
</svg>
